<svg width="92" height="25" viewBox="0 0 92 25" fill="none" xmlns="http://www.w3.org/2000/svg">
<path d="M5.88 19.432C4.872 19.432 3.984 19.256 3.216 18.904C2.448 18.552 1.856 18.064 1.44 17.44C1.024 16.8 0.816 16.064 0.816 15.232C0.816 14.528 0.96 13.888 1.248 13.312C1.552 12.736 1.952 12.28 2.448 11.944C2.96 11.608 3.52 11.44 4.128 11.44C4.688 11.44 5.16 11.584 5.544 11.872C5.928 12.144 6.168 12.528 6.264 13.024C5.432 13.024 4.768 13.248 4.272 13.696C3.776 14.128 3.528 14.72 3.528 15.472C3.528 16.16 3.736 16.712 4.152 17.128C4.568 17.544 5.12 17.752 5.808 17.752C6.656 17.752 7.352 17.472 7.896 16.912C8.456 16.336 8.736 15.616 8.736 14.752C8.736 14 8.528 13.288 8.112 12.616C7.696 11.944 7.072 11.128 6.24 10.168C5.376 9.176 4.72 8.328 4.272 7.624C3.84 6.904 3.624 6.12 3.624 5.272C3.624 4.44 3.856 3.696 4.32 3.04C4.784 2.368 5.424 1.84 6.24 1.456C7.056 1.072 7.976 0.879999 9 0.879999C10.296 0.879999 11.328 1.184 12.096 1.792C12.88 2.4 13.272 3.216 13.272 4.24C13.272 4.912 13.104 5.456 12.768 5.872C12.432 6.288 11.992 6.496 11.448 6.496C10.84 6.496 10.352 6.248 9.984 5.752C10.288 5.528 10.528 5.232 10.704 4.864C10.88 4.496 10.968 4.112 10.968 3.712C10.968 3.2 10.816 2.792 10.512 2.488C10.208 2.184 9.792 2.032 9.264 2.032C8.624 2.032 8.096 2.264 7.68 2.728C7.28 3.176 7.08 3.752 7.08 4.456C7.08 5.096 7.264 5.696 7.632 6.256C8 6.8 8.576 7.504 9.36 8.368C10 9.056 10.512 9.648 10.896 10.144C11.296 10.64 11.632 11.216 11.904 11.872C12.192 12.512 12.336 13.208 12.336 13.96C12.336 14.984 12.048 15.912 11.472 16.744C10.912 17.576 10.136 18.232 9.144 18.712C8.168 19.192 7.08 19.432 5.88 19.432ZM16.0635 19.144C15.2955 19.144 14.6715 18.904 14.1915 18.424C13.7275 17.944 13.4955 17.224 13.4955 16.264C13.4955 15.864 13.5595 15.344 13.6875 14.704L16.2555 2.68L19.8075 2.2L17.0475 15.16C16.9835 15.4 16.9515 15.656 16.9515 15.928C16.9515 16.248 17.0235 16.48 17.1675 16.624C17.3275 16.752 17.5835 16.816 17.9355 16.816C18.3995 16.816 18.8315 16.624 19.2315 16.24C19.6315 15.84 19.9195 15.328 20.0955 14.704H21.1035C20.5115 16.432 19.7515 17.608 18.8235 18.232C17.8955 18.84 16.9755 19.144 16.0635 19.144ZM23.5179 19.144C22.3339 19.144 21.4139 18.84 20.7579 18.232C20.1019 17.608 19.7739 16.64 19.7739 15.328C19.7739 14.224 19.9899 13.008 20.4219 11.68C20.8539 10.352 21.5579 9.208 22.5339 8.248C23.5099 7.272 24.7499 6.784 26.2539 6.784C28.0139 6.784 28.8939 7.552 28.8939 9.088C28.8939 9.984 28.6379 10.808 28.1259 11.56C27.6139 12.312 26.9339 12.92 26.0859 13.384C25.2379 13.832 24.3339 14.088 23.3739 14.152C23.3419 14.632 23.3259 14.952 23.3259 15.112C23.3259 15.896 23.4619 16.432 23.7339 16.72C24.0059 16.992 24.4459 17.128 25.0539 17.128C25.9179 17.128 26.6539 16.928 27.2619 16.528C27.8859 16.128 28.5659 15.52 29.3019 14.704H30.1179C28.3419 17.664 26.1419 19.144 23.5179 19.144ZM23.5659 13C24.1579 12.968 24.7179 12.76 25.2459 12.376C25.7899 11.992 26.2219 11.504 26.5419 10.912C26.8779 10.32 27.0459 9.696 27.0459 9.04C27.0459 8.384 26.8459 8.056 26.4459 8.056C25.8699 8.056 25.3019 8.56 24.7419 9.568C24.1979 10.576 23.8059 11.72 23.5659 13ZM32.7289 19.144C31.5449 19.144 30.6249 18.84 29.9689 18.232C29.3129 17.608 28.9849 16.64 28.9849 15.328C28.9849 14.224 29.2009 13.008 29.6329 11.68C30.0649 10.352 30.7689 9.208 31.7449 8.248C32.7209 7.272 33.9609 6.784 35.4649 6.784C37.2249 6.784 38.1049 7.552 38.1049 9.088C38.1049 9.984 37.8489 10.808 37.3369 11.56C36.8249 12.312 36.1449 12.92 35.2969 13.384C34.4489 13.832 33.5449 14.088 32.5849 14.152C32.5529 14.632 32.5369 14.952 32.5369 15.112C32.5369 15.896 32.6729 16.432 32.9449 16.72C33.2169 16.992 33.6569 17.128 34.2649 17.128C35.1289 17.128 35.8649 16.928 36.4729 16.528C37.0969 16.128 37.7769 15.52 38.5129 14.704H39.3289C37.5529 17.664 35.3529 19.144 32.7289 19.144ZM32.7769 13C33.3689 12.968 33.9289 12.76 34.4569 12.376C35.0009 11.992 35.4329 11.504 35.7529 10.912C36.0889 10.32 36.2569 9.696 36.2569 9.04C36.2569 8.384 36.0569 8.056 35.6569 8.056C35.0809 8.056 34.5129 8.56 33.9529 9.568C33.4089 10.576 33.0169 11.72 32.7769 13ZM40.3318 6.112H43.7878L43.4038 7.912C44.2038 7.224 45.1398 6.88 46.2118 6.88C47.1078 6.88 47.8198 7.176 48.3478 7.768C48.8758 8.36 49.1398 9.328 49.1398 10.672C49.1398 11.936 48.9558 13.216 48.5878 14.512C48.2198 15.792 47.5958 16.888 46.7158 17.8C45.8358 18.696 44.6758 19.144 43.2358 19.144C42.2118 19.144 41.5318 18.856 41.1958 18.28L39.9478 24.136L36.3238 25L40.3318 6.112ZM42.4918 17.056C43.2598 17.056 43.8918 16.696 44.3878 15.976C44.8998 15.256 45.2678 14.4 45.4918 13.408C45.7318 12.4 45.8518 11.464 45.8518 10.6C45.8518 9.272 45.4518 8.608 44.6518 8.608C44.3638 8.608 44.0678 8.712 43.7638 8.92C43.4758 9.128 43.2198 9.416 42.9958 9.784L41.5798 16.504C41.7078 16.872 42.0118 17.056 42.4918 17.056ZM55.6144 19.432C54.6064 19.432 53.7184 19.256 52.9504 18.904C52.1824 18.552 51.5904 18.064 51.1744 17.44C50.7584 16.8 50.5504 16.064 50.5504 15.232C50.5504 14.528 50.6944 13.888 50.9824 13.312C51.2864 12.736 51.6864 12.28 52.1824 11.944C52.6944 11.608 53.2544 11.44 53.8624 11.44C54.4224 11.44 54.8944 11.584 55.2784 11.872C55.6624 12.144 55.9024 12.528 55.9984 13.024C55.1664 13.024 54.5024 13.248 54.0064 13.696C53.5104 14.128 53.2624 14.72 53.2624 15.472C53.2624 16.16 53.4704 16.712 53.8864 17.128C54.3024 17.544 54.8544 17.752 55.5424 17.752C56.3904 17.752 57.0864 17.472 57.6304 16.912C58.1904 16.336 58.4704 15.616 58.4704 14.752C58.4704 14 58.2624 13.288 57.8464 12.616C57.4304 11.944 56.8064 11.128 55.9744 10.168C55.1104 9.176 54.4544 8.328 54.0064 7.624C53.5744 6.904 53.3584 6.12 53.3584 5.272C53.3584 4.44 53.5904 3.696 54.0544 3.04C54.5184 2.368 55.1584 1.84 55.9744 1.456C56.7904 1.072 57.7104 0.879999 58.7344 0.879999C60.0304 0.879999 61.0624 1.184 61.8304 1.792C62.6144 2.4 63.0064 3.216 63.0064 4.24C63.0064 4.912 62.8384 5.456 62.5024 5.872C62.1664 6.288 61.7264 6.496 61.1824 6.496C60.5744 6.496 60.0864 6.248 59.7184 5.752C60.0224 5.528 60.2624 5.232 60.4384 4.864C60.6144 4.496 60.7024 4.112 60.7024 3.712C60.7024 3.2 60.5504 2.792 60.2464 2.488C59.9424 2.184 59.5264 2.032 58.9984 2.032C58.3584 2.032 57.8304 2.264 57.4144 2.728C57.0144 3.176 56.8144 3.752 56.8144 4.456C56.8144 5.096 56.9984 5.696 57.3664 6.256C57.7344 6.8 58.3104 7.504 59.0944 8.368C59.7344 9.056 60.2464 9.648 60.6304 10.144C61.0304 10.64 61.3664 11.216 61.6384 11.872C61.9264 12.512 62.0704 13.208 62.0704 13.96C62.0704 14.984 61.7824 15.912 61.2064 16.744C60.6464 17.576 59.8704 18.232 58.8784 18.712C57.9024 19.192 56.8144 19.432 55.6144 19.432ZM65.2459 6.112H68.7019L68.3179 7.912C69.1179 7.224 70.0539 6.88 71.1259 6.88C72.0219 6.88 72.7339 7.176 73.2619 7.768C73.7899 8.36 74.0539 9.328 74.0539 10.672C74.0539 11.936 73.8699 13.216 73.5019 14.512C73.1339 15.792 72.5099 16.888 71.6299 17.8C70.7499 18.696 69.5899 19.144 68.1499 19.144C67.1259 19.144 66.4459 18.856 66.1099 18.28L64.8619 24.136L61.2379 25L65.2459 6.112ZM67.4059 17.056C68.1739 17.056 68.8059 16.696 69.3019 15.976C69.8139 15.256 70.1819 14.4 70.4059 13.408C70.6459 12.4 70.7659 11.464 70.7659 10.6C70.7659 9.272 70.3659 8.608 69.5659 8.608C69.2779 8.608 68.9819 8.712 68.6779 8.92C68.3899 9.128 68.1339 9.416 67.9099 9.784L66.4939 16.504C66.6219 16.872 66.9259 17.056 67.4059 17.056ZM78.1524 19.096C76.9684 19.096 76.0324 18.792 75.3444 18.184C74.6564 17.576 74.3124 16.616 74.3124 15.304C74.3124 14.216 74.5364 13.008 74.9844 11.68C75.4324 10.352 76.1524 9.208 77.1444 8.248C78.1364 7.272 79.3844 6.784 80.8884 6.784C82.9364 6.784 83.9604 8.064 83.9604 10.624V10.648C84.0084 10.664 84.0964 10.672 84.2244 10.672C84.7524 10.672 85.3604 10.536 86.0484 10.264C86.7364 9.976 87.3604 9.632 87.9204 9.232L88.1364 9.88C87.6724 10.376 87.0644 10.8 86.3124 11.152C85.5764 11.488 84.7684 11.728 83.8884 11.872C83.7604 13.328 83.4324 14.6 82.9044 15.688C82.3764 16.776 81.6964 17.616 80.8644 18.208C80.0324 18.8 79.1284 19.096 78.1524 19.096ZM79.1124 16.936C79.4964 16.936 79.8804 16.72 80.2644 16.288C80.6484 15.84 80.9844 15.24 81.2724 14.488C81.5604 13.72 81.7684 12.872 81.8964 11.944C81.4644 11.848 81.2484 11.512 81.2484 10.936C81.2484 10.28 81.4964 9.848 81.9924 9.64C81.9604 9.112 81.8804 8.752 81.7524 8.56C81.6244 8.352 81.4004 8.248 81.0804 8.248C80.5524 8.248 80.0404 8.632 79.5444 9.4C79.0484 10.168 78.6484 11.088 78.3444 12.16C78.0404 13.232 77.8884 14.176 77.8884 14.992C77.8884 15.76 77.9764 16.28 78.1524 16.552C78.3284 16.808 78.6484 16.936 79.1124 16.936ZM87.4513 19.144C86.6353 19.144 86.0273 18.896 85.6273 18.4C85.2433 17.904 85.0513 17.248 85.0513 16.432C85.0513 16.016 85.0993 15.592 85.1953 15.16L86.7313 7.96H85.9393L86.1313 7H86.9233L87.6433 3.688L91.1953 3.208C91.0513 3.816 90.9713 4.176 90.9553 4.288C90.8433 4.736 90.6513 5.64 90.3793 7H91.8193L91.6273 7.96H90.1873L88.6513 15.16C88.5713 15.512 88.5313 15.792 88.5313 16C88.5313 16.576 88.8113 16.864 89.3713 16.864C89.6593 16.864 89.8673 16.84 89.9953 16.792C89.6753 17.72 89.2993 18.344 88.8673 18.664C88.4353 18.984 87.9633 19.144 87.4513 19.144Z" fill="black"/>
</svg>
